<?xml version="1.0" encoding="UTF-8" standalone="no"?>
<svg
   xmlns:dc="http://purl.org/dc/elements/1.1/"
   xmlns:cc="http://creativecommons.org/ns#"
   xmlns:rdf="http://www.w3.org/1999/02/22-rdf-syntax-ns#"
   xmlns:svg="http://www.w3.org/2000/svg"
   xmlns="http://www.w3.org/2000/svg"
   viewBox="0 0 310.30667 94.573334"
   height="94.573334"
   width="310.30667"
   xml:space="preserve"
   version="1.1"
   id="svg2"><metadata
     id="metadata8"><rdf:RDF><cc:Work
         rdf:about=""><dc:format>image/svg+xml</dc:format><dc:type
           rdf:resource="http://purl.org/dc/dcmitype/StillImage" /></cc:Work></rdf:RDF></metadata><defs
     id="defs6" /><g
     transform="matrix(1.3333333,0,0,-1.3333333,0,94.573333)"
     id="g10"><g
       transform="scale(0.1)"
       id="g12"><path
         id="path14"
         style="fill:#ee293d;fill-opacity:1;fill-rule:nonzero;stroke:none"
         d="m 0.925781,492.449 425.265999,0 0,216.848 -425.265999,0 0,-216.848 z" /><path
         id="path16"
         style="fill:#231f20;fill-opacity:1;fill-rule:nonzero;stroke:none"
         d="m 0.925781,284.102 425.296999,0 0,212.598 -425.296999,0 0,-212.598 z" /><path
         id="path18"
         style="fill:#ffffff;fill-opacity:1;fill-rule:nonzero;stroke:none"
         d="m 75.0977,483.762 276.699,0 0,25.8789 -276.699,0 0,-25.8789 z" /><path
         id="path20"
         style="fill:#231f20;fill-opacity:1;fill-rule:nonzero;stroke:none"
         d="m 697.539,603.125 c 46.277,0 75.332,-30.242 75.332,-72.031 0,-43.516 -29.055,-68.574 -75.332,-68.574 l -92.051,0 0,-71.133 -39.218,0 0,211.738 131.269,0 z m 2.246,-105.605 c 20.313,0 33.035,14.074 33.035,33.007 0,20.879 -12.722,37.559 -35.281,37.559 l -92.051,0 0,-70.566 94.297,0" /><path
         id="path22"
         style="fill:#231f20;fill-opacity:1;fill-rule:nonzero;stroke:none"
         d="m 918.27,385.469 c -67.45,0 -123.348,44.851 -123.348,112.051 0,66.328 55.898,112.07 123.348,112.07 67.765,0 122.77,-45.742 122.77,-112.07 0,-67.2 -55.005,-112.051 -122.77,-112.051 m 0,187.969 c -49.149,0 -82.743,-33.29 -82.743,-75.918 0,-43.77 32.2,-76.192 82.743,-76.192 50.253,0 82.11,32.695 82.11,76.192 0,42.628 -31.857,75.918 -82.11,75.918" /><path
         id="path24"
         style="fill:#231f20;fill-opacity:1;fill-rule:nonzero;stroke:none"
         d="m 1203.65,385.723 c -70.87,0 -124.23,44.89 -124.23,112.058 0,66.067 54.17,111.809 124.23,111.809 41.8,0 71.68,-11.887 98.54,-31.594 l -20.96,-31.101 c -19.45,15.007 -44,25.988 -76.44,25.988 -51.7,0 -83.87,-32.735 -83.87,-75.102 0,-43.758 32.48,-75.32 84.41,-75.32 32.45,0 58.13,10.441 77.62,25.351 l 20.88,-31.035 c -26.79,-19.746 -58.38,-31.054 -100.18,-31.054" /><path
         id="path26"
         style="fill:#231f20;fill-opacity:1;fill-rule:nonzero;stroke:none"
         d="m 1642.9,442.773 -24.26,-51.406 -42.37,0 103.02,211.758 41.19,0 103.35,-211.758 -42.36,0 -24.25,51.406 -114.32,0 z m 16.36,34.422 81.62,0 -40.68,85.832 -40.94,-85.832" /><path
         id="path28"
         style="fill:#231f20;fill-opacity:1;fill-rule:nonzero;stroke:none"
         d="m 2031.56,391.387 0,90.586 -138.59,0 0,-90.586 -39.25,0 0,211.738 39.25,0 0,-86.426 138.59,0 0,86.426 39.26,0 0,-211.738 -39.26,0" /><path
         id="path30"
         style="fill:#231f20;fill-opacity:1;fill-rule:nonzero;stroke:none"
         d="m 2128.91,391.387 0,211.738 39.29,0 0,-98.809 106.39,98.809 48.2,0 -109.45,-101.953 113.99,-109.785 -52.74,0 -106.39,102.754 0,-102.754 -39.29,0" /><path
         id="path32"
         style="fill:#231f20;fill-opacity:1;fill-rule:nonzero;stroke:none"
         d="m 1479.32,525.496 -91.94,0 0,44.641 151.46,0 0,33.164 -190.71,0 0,-211.563 131.19,0 c 46.22,0 78.08,25.137 78.08,66.875 0,43.43 -31.86,66.883 -78.08,66.883 m 2.26,-98.758 -94.2,0 0,63.731 94.2,0 c 24.59,0 38.57,-12.969 38.57,-31.856 0,-20.859 -11.11,-31.875 -38.57,-31.875" /><path
         id="path34"
         style="fill:#231f20;fill-opacity:1;fill-rule:nonzero;stroke:none"
         d="m 60.2734,55 c -8.8281,3.7891 -18.3593,6.2891 -26.8242,6.2891 -12.3476,0 -18.5273,-2.6836 -18.5273,-7.4805 0,-13.6328 55.125,-2.6758 55.125,-31.8242 C 70.0469,9.91016 58.7188,0.625 36.0273,0.625 22.5703,0.625 12.0703,3.40625 0,9.91016 L 4.98047,20.7812 C 15.5859,14.9023 25.4414,12.3633 36.1523,12.3633 c 13.4297,0 20.6172,3.8281 20.6172,9.6211 0,14.9687 -55.13669,3.8164 -55.13669,31.1133 0,11.7656 11.25779,19.9101 31.53909,19.9101 12.1406,0 22.3828,-2.7344 32.1797,-7.5976 L 60.2734,55" /><path
         id="path36"
         style="fill:#231f20;fill-opacity:1;fill-rule:nonzero;stroke:none"
         d="m 121.113,0.304688 c -22.0114,0 -40.3122,14.617212 -40.3122,36.558612 0,21.6836 18.3008,36.6133 40.3122,36.6133 22.129,0 40.078,-14.9297 40.078,-36.6133 0,-21.9414 -17.949,-36.558612 -40.078,-36.558612 m 0,61.355512 c -16.054,0 -27.0114,-10.8594 -27.0114,-24.7969 0,-14.3242 10.5274,-24.8906 27.0114,-24.8906 16.387,0 26.848,10.6562 26.848,24.8906 0,13.9375 -10.461,24.7969 -26.848,24.7969" /><path
         id="path38"
         style="fill:#231f20;fill-opacity:1;fill-rule:nonzero;stroke:none"
         d="m 213.672,0.351562 c -23.137,0 -40.527,14.667938 -40.527,36.601538 0,21.5938 17.683,36.5235 40.527,36.5235 13.625,0 23.418,-3.8868 32.168,-10.3516 l -6.797,-10.1445 c -6.348,4.8906 -14.387,8.4843 -25,8.4843 -16.863,0 -27.383,-10.664 -27.383,-24.5117 0,-14.3242 10.598,-24.5898 27.559,-24.5898 10.586,0 18.984,3.3984 25.332,8.3281 L 246.414,10.5 C 237.617,4.05469 227.297,0.351562 213.672,0.351562" /><path
         id="path40"
         style="fill:#231f20;fill-opacity:1;fill-rule:nonzero;stroke:none"
         d="m 260.027,2.17969 12.8242,0 0,69.1484 -12.8242,0 0,-69.1484 z" /><path
         id="path42"
         style="fill:#231f20;fill-opacity:1;fill-rule:nonzero;stroke:none"
         d="m 291.094,2.1875 0,69.1406 62.976,0 0,-11.4453 -50.164,0 0,-16.7383 39.004,0 0,-11.4648 -39.004,0 0,-18.0742 52.356,0 0,-11.418 -65.168,0" /><path
         id="path44"
         style="fill:#231f20;fill-opacity:1;fill-rule:nonzero;stroke:none"
         d="m 403.008,60.0117 0,-57.8242 -12.82,0 0,57.8242 -28.196,0 0,11.3164 69.141,0 0,-11.3164 -28.125,0" /><path
         id="path46"
         style="fill:#231f20;fill-opacity:1;fill-rule:nonzero;stroke:none"
         d="m 441.543,2.1875 0,69.1406 62.969,0 0,-11.4453 -50.137,0 0,-16.7383 38.977,0 0,-11.4648 -38.977,0 0,-18.0742 52.344,0 0,-11.418 -65.176,0" /><path
         id="path48"
         style="fill:#231f20;fill-opacity:1;fill-rule:nonzero;stroke:none"
         d="m 586.926,12.4336 c 6.992,0 14.285,1.582 19.722,4.1094 l 0,20.1172 12.446,0 0,-26.80473 C 610.32,3.94531 598.262,0.351562 586.34,0.351562 c -23.117,0 -40.539,14.667938 -40.539,36.601538 0,21.5938 17.695,36.5235 40.539,36.5235 13.406,0 23.457,-3.7969 32.183,-10.2539 l -6.812,-10.1368 c -6.34,4.875 -14.375,8.2032 -24.981,8.2032 -16.867,0.3711 -27.375,-10.4883 -27.375,-24.336 0,-14.3242 10.606,-24.5195 27.571,-24.5195" /><path
         id="path50"
         style="fill:#231f20;fill-opacity:1;fill-rule:nonzero;stroke:none"
         d="m 636.426,2.1875 0,69.1406 62.988,0 0,-11.4453 -50.176,0 0,-16.7383 39.024,0 0,-11.4648 -39.024,0 0,-18.0742 52.364,0 0,-11.418 -65.176,0" /><path
         id="path52"
         style="fill:#231f20;fill-opacity:1;fill-rule:nonzero;stroke:none"
         d="m 727.891,2.1875 -12.559,0 0,69.1406 13.098,0 45.047,-52.0976 0.3,0.1054 c -0.75,13.1446 -0.808,23.7383 -0.808,33.9258 l 0,18.0664 12.48,0 0,-69.1406 -12.949,0 -44.895,52.0898 -0.203,-0.0781 c 0.489,-10.2461 0.489,-28.1054 0.489,-33.9648 l 0,-18.0469" /><path
         id="path54"
         style="fill:#231f20;fill-opacity:1;fill-rule:nonzero;stroke:none"
         d="m 803.828,2.1875 0,69.1406 62.957,0 0,-11.4453 -50.164,0 0,-16.7383 38.992,0 0,-11.4648 -38.992,0 0,-18.0742 52.371,0 0,-11.418 -65.164,0" /><path
         id="path56"
         style="fill:#231f20;fill-opacity:1;fill-rule:nonzero;stroke:none"
         d="m 916.035,27.668 -20.652,0 0,-25.4805 -12.856,0 0,69.1406 44.485,0 c 14.746,0 23.847,-9.0039 23.847,-22.0312 0,-12.3438 -8.957,-19.7266 -19.812,-21.2774 l 20.586,-25.832 -16.086,0 -19.512,25.4805 z m 9.61,11.4726 c 7.968,0 12.519,4.1602 12.519,10.1563 0,6.5429 -3.984,10.5859 -11.152,10.5859 l -31.629,0 0,-20.7422 30.262,0" /><path
         id="path58"
         style="fill:#231f20;fill-opacity:1;fill-rule:nonzero;stroke:none"
         d="m 977.703,19.0039 -7.93,-16.82421 -13.843,0 33.64,69.14841 13.49,0 33.74,-69.14841 -13.82,0 -7.96,16.82421 -37.317,0 z m 5.317,11.2109 26.64,0 -13.234,28.0391 -13.406,-28.0391" /><path
         id="path60"
         style="fill:#231f20;fill-opacity:1;fill-rule:nonzero;stroke:none"
         d="m 1046.01,2.1875 0,69.1406 12.81,0 0,-57.7226 46.16,0 0,-11.418 -58.97,0" /><path
         id="path62"
         style="fill:#231f20;fill-opacity:1;fill-rule:nonzero;stroke:none"
         d="m 1115.08,2.1875 0,69.1406 62.93,0 0,-11.4453 -50.12,0 0,-16.7383 38.95,0 0,-11.4648 -38.95,0 0,-18.0742 52.32,0 0,-11.418 -65.13,0" /><path
         id="path64"
         style="fill:#231f20;fill-opacity:1;fill-rule:nonzero;stroke:none"
         d="m 1263.33,12.3047 c 7.02,0 14.31,1.5351 19.81,4.1211 l 0,20.0976 12.43,0 0,-26.8359 c -8.73,-5.9375 -20.87,-9.53125 -32.78,-9.53125 -23.19,0 -40.62,14.70705 -40.62,36.69925 0,21.6015 17.72,36.5429 40.62,36.5429 13.37,0 23.46,-3.789 32.29,-10.2539 l -6.88,-10.1367 c -6.36,4.9024 -14.41,8.2227 -25.05,8.2227 -16.88,0.3633 -27.45,-10.5078 -27.45,-24.375 0,-14.3438 10.64,-24.5508 27.63,-24.5508" /><path
         id="path66"
         style="fill:#231f20;fill-opacity:1;fill-rule:nonzero;stroke:none"
         d="m 1346.47,27.5195 -20.68,0 0,-25.52731 -12.84,0 0,69.31641 44.57,0 c 14.75,0 23.94,-9.0625 23.94,-22.1094 0,-12.3437 -8.96,-19.7148 -19.93,-21.2969 l 20.68,-25.91011 -16.11,0 -19.63,25.52731 z m 9.66,11.5117 c 8.01,0 12.56,4.1719 12.56,10.168 0,6.5352 -4.02,10.6446 -11.17,10.6446 l -31.73,0 0,-20.8126 30.34,0" /><path
         id="path68"
         style="fill:#231f20;fill-opacity:1;fill-rule:nonzero;stroke:none"
         d="m 1432.71,0.0390625 c -22.05,0 -40.36,14.7265375 -40.36,36.7187375 0,21.6992 18.31,36.6406 40.36,36.6406 22.17,0 40.21,-14.9414 40.21,-36.6406 0,-21.9922 -18.04,-36.7187375 -40.21,-36.7187375 m 0,61.5547375 c -16.04,0 -27.07,-10.8516 -27.07,-24.836 0,-14.3086 10.53,-24.9101 27.07,-24.9101 16.45,0 26.86,10.664 26.86,24.9101 0,13.9844 -10.41,24.836 -26.86,24.836" /><path
         id="path70"
         style="fill:#231f20;fill-opacity:1;fill-rule:nonzero;stroke:none"
         d="M 1557.52,30.2148 C 1557.52,12.5391 1544.4,0 1522.58,0 c -21.8,0 -34.88,12.8125 -34.88,30.2148 l 0,41.1016 12.85,0 0,-39.7344 c 0,-11.4726 6.97,-19.6875 22.03,-19.6875 15,0 22.15,8.125 22.15,19.6875 l 0,39.7344 12.79,0 0,-41.1016" /><path
         id="path72"
         style="fill:#231f20;fill-opacity:1;fill-rule:nonzero;stroke:none"
         d="m 1618.41,71.3086 c 15.12,0 24.7,-9.8633 24.7,-23.5742 0,-14.1992 -9.58,-22.4688 -24.7,-22.4688 l -30.13,0 0,-23.27341 -12.82,0 0,69.31641 42.95,0 z m 0.76,-34.5508 c 6.56,0 10.81,4.6094 10.81,10.832 0,6.7852 -4.25,12.2735 -11.57,12.2735 l -30.13,0 0,-23.1055 30.89,0" /></g></g></svg>