<?xml version="1.0" encoding="UTF-8" standalone="no"?>
<svg
   xmlns:dc="http://purl.org/dc/elements/1.1/"
   xmlns:cc="http://creativecommons.org/ns#"
   xmlns:rdf="http://www.w3.org/1999/02/22-rdf-syntax-ns#"
   xmlns:svg="http://www.w3.org/2000/svg"
   xmlns="http://www.w3.org/2000/svg"
   viewBox="0 0 288.23397 59.359826"
   height="59.359825"
   width="288.23398"
   version="1.1"
   id="svg2">
  <metadata
     id="metadata8">
    <rdf:RDF>
      <cc:Work
         rdf:about="">
        <dc:format>image/svg+xml</dc:format>
        <dc:type
           rdf:resource="http://purl.org/dc/dcmitype/StillImage" />
        <dc:title></dc:title>
      </cc:Work>
    </rdf:RDF>
  </metadata>
  <defs
     id="defs6" />
  <path
     id="path3338"
     d="M 25.26268,59.052158 C 22.517301,58.660738 17.925628,57.10757 15.365139,55.704238 7.6997077,51.503035 2.2928334,44.127948 0.44771729,35.356572 -0.14758411,32.526607 -0.14957001,26.81825 0.44376729,23.997632 2.4703109,14.363778 8.9116497,6.3192643 17.610388,2.5584373 c 6.858914,-2.96539501 13.912663,-3.35586501 20.888938,-1.156337 5.157987,1.626246 8.823033,3.936063 12.720057,8.0165436 5.327056,5.5778291 8.029945,12.3936911 8.029945,20.2490641 0,7.855373 -2.702889,14.671235 -8.029945,20.249065 -3.889357,4.072451 -7.563561,6.390784 -12.689897,8.007014 -4.468493,1.408826 -8.747254,1.772742 -13.266803,1.128371 z M 36.399112,57.48827 c 7.969615,-1.849174 15.213957,-7.630553 19.021961,-15.180562 0.443846,-0.88 1.214188,-2.824 1.711868,-4.32 0.855072,-2.570307 0.904871,-3.028195 0.904871,-8.32 0,-5.291806 -0.0498,-5.749694 -0.904871,-8.32 C 54.408538,13.158303 49.028196,7.0711623 41.398116,3.5458483 34.827822,0.51018529 26.493803,0.23386929 19.50268,2.8198993 11.226522,5.8812673 4.3614204,13.416582 1.8299816,22.217914 c -0.6035974,2.098594 -0.7161142,3.269118 -0.7161142,7.449794 0,4.180675 0.1125168,5.3512 0.7161142,7.449795 1.6181788,5.626099 5.4450041,11.438387 9.7476284,14.804956 7.374447,5.770109 15.799233,7.659229 24.821502,5.565811 z M 26.643477,51.444875 C 21.061862,50.562834 15.467846,47.439522 14.234381,44.516498 14.004332,43.97133 13.302846,43.208072 12.675525,42.820367 11.183879,41.898479 10.22268,40.302988 10.22268,38.748898 c 0,-0.977309 -0.213544,-1.444819 -0.9982433,-2.185449 -0.924309,-0.8724 -0.985834,-1.062426 -0.830688,-2.565652 0.115208,-1.116249 0.02718,-1.815446 -0.281756,-2.237939 -1.090296,-1.491068 0.0012,-4.660984 2.1748313,-6.315904 3.379484,-2.573057 9.974524,-4.621454 21.375856,-6.639267 2.024,-0.358209 4.112,-0.778822 4.64,-0.934697 1.918995,-0.566522 -0.203341,-0.842476 -6.4,-0.832152 -5.21609,0.0087 -6.48922,0.112428 -8.96,0.730085 -3.871916,0.967919 -5.849943,1.727329 -9.345207,3.58784 -2.6027893,1.385451 -2.9154953,1.485417 -2.6896493,0.859832 0.561897,-1.556435 6.9605153,-4.680753 12.4323343,-6.070463 2.438229,-0.619251 3.592847,-0.708185 8.882522,-0.684173 3.344,0.01518 6.78518,0.179274 7.647065,0.364654 1.465683,0.315248 1.61832,0.285801 2.359274,-0.455153 0.435712,-0.435713 0.666534,-0.908185 0.512934,-1.049936 -0.740368,-0.683256 -4.786969,-1.358351 -9.118332,-1.521213 -3.609117,-0.135704 -5.437661,-0.04909 -7.996558,0.37879 -4.06551,0.679802 -8.110567,1.828591 -10.242179,2.90876 -1.552746,0.786837 -1.589969,0.790654 -1.234586,0.126613 0.767239,-1.433598 6.874983,-3.598361 13.079896,-4.635896 3.917862,-0.655113 9.127247,-0.521881 12.775039,0.326726 1.288406,0.29973 2.416899,0.470618 2.507766,0.379752 0.287008,-0.28701 -1.376022,-1.199307 -3.794915,-2.081794 -2.207888,-0.8055061 -2.641171,-0.8508731 -7.935404,-0.8308731 -5.046574,0.01907 -5.860901,0.10116 -8.24,0.8307191 -1.452,0.445261 -2.64,0.762099 -2.64,0.704086 0,-0.265736 2.619182,-1.3974241 4.643873,-2.0065111 7.948828,-2.3912406 17.606734,-0.613826 20.552363,3.7824021 0.403299,0.601907 1.199133,1.372247 1.768515,1.711868 1.811629,1.080578 3.097251,2.529469 3.312615,3.733302 0.112214,0.627249 0.616777,1.552626 1.121251,2.056392 1.181808,1.18015 1.774339,3.048223 1.26734,3.995555 -0.303433,0.566972 -0.245772,0.849928 0.332612,1.632235 1.254742,1.697129 0.68774,3.831298 -1.536807,5.784479 -1.605264,1.40944 -5.715497,3.302781 -8.964211,4.129283 -2.21231,0.562829 -13.01535,2.560352 -14.017551,2.591898 -0.176,0.0055 -0.07461,0.153152 0.225312,0.328022 0.299923,0.174874 2.062624,0.487507 3.917113,0.694742 5.650672,0.631447 12.188637,-0.426953 18.177574,-2.942684 1.188,-0.499034 2.16,-0.787767 2.16,-0.641629 0,0.938637 -4.821981,2.997027 -9.76,4.16632 -5.957231,1.410633 -11.128188,1.408755 -16.860362,-0.0061 -1.875817,-0.463011 -2.728377,-0.533293 -3.588438,-0.295818 -1.70544,0.470896 -1.649493,0.815088 0.247883,1.524986 7.462668,2.792144 16.068966,2.873712 25.167061,0.238531 3.004138,-0.870122 3.293984,-0.415591 0.459511,0.720605 -8.134199,3.260576 -18.671558,3.473804 -26.485227,0.535945 -2.627847,-0.988041 -2.991453,-1.053885 -3.420427,-0.619369 -0.427025,0.432537 -0.411342,0.537091 0.142108,0.947331 0.857815,0.635849 5.261016,2.306294 8.168037,3.098707 1.9462,0.530509 3.39494,0.659712 7.529855,0.671545 4.968339,0.01421 6.54534,-0.190467 11.999999,-1.557507 0.778509,-0.19511 0.782963,-0.186707 0.16584,0.312759 -0.768886,0.622294 -4.713216,1.896931 -7.539977,2.436595 -2.842605,0.542691 -8.645529,0.546342 -11.345862,0.0071 -2.168089,-0.432922 -5.035052,-1.330855 -7.68,-2.405376 l -1.28,-0.520003 1.12,0.989315 c 1.80757,1.596659 6.073203,3.499865 9.035241,4.031273 2.917498,0.523415 7.220602,0.370029 10.408467,-0.371014 1.007056,-0.234096 1.873376,-0.38327 1.925152,-0.331491 0.139293,0.139293 -3.090691,1.376931 -4.56886,1.750659 -1.871012,0.47305 -6.147735,0.666378 -8.059203,0.364314 z M 14.38268,40.540082 c 0,-0.372989 -1.276591,-1.062451 -1.518778,-0.820262 -0.267148,0.267148 0.912561,1.48478 1.241545,1.281456 0.152478,-0.09424 0.277233,-0.301773 0.277233,-0.461194 z m 2.88,-2.062208 0.8,-0.447158 -1.516199,-0.674797 c -1.210028,-0.538534 -1.651738,-0.602259 -2.187407,-0.315578 -0.738181,0.395063 -0.704146,0.470893 0.581181,1.294884 1.082114,0.693715 1.311332,0.707795 2.322425,0.142649 z m 4.935392,-1.760809 c 0.44938,-0.170855 4.238755,-0.95704 8.420832,-1.747079 11.173327,-2.110761 15.985234,-3.695612 17.651263,-5.813628 0.64024,-0.81393 0.865194,-1.749302 0.506877,-2.107618 -0.0911,-0.0911 -1.423098,0.457971 -2.96,1.220156 -3.332665,1.652748 -8.01438,2.885065 -16.75527,4.410313 -6.533908,1.140137 -11.479094,2.322076 -11.479094,2.7436 0,0.257142 2.765694,1.534361 3.419168,1.578998 0.208543,0.01424 0.746843,-0.113888 1.196224,-0.284742 z M 12.14268,35.420082 c 0,-0.372989 -1.276591,-1.062451 -1.518778,-0.820262 -0.267148,0.267149 0.912561,1.484781 1.241545,1.281456 0.152478,-0.09424 0.277233,-0.301773 0.277233,-0.461194 z m 3.537205,-2.241152 c 1.899642,-0.969123 6.493508,-2.102345 12.942795,-3.192742 3.168,-0.535622 7.56,-1.412474 9.759999,-1.948559 4.194848,-1.022178 8.438051,-2.720023 8.112848,-3.246216 -0.105037,-0.169953 -0.666755,-0.507799 -1.248262,-0.750768 -0.975709,-0.407677 -1.312176,-0.358892 -4.360934,0.632299 -1.817008,0.590733 -4.671651,1.318295 -6.343651,1.616804 -7.659095,1.36741 -13.179271,2.516581 -15.68,3.26421 -2.765879,0.826899 -6.4,2.546355 -6.4,3.028115 0,0.210406 1.453695,1.177699 1.852748,1.232822 0.05101,0.007 0.665017,-0.279136 1.364457,-0.635965 z m -1.661546,-4.693337 c 2.691271,-1.1943 6.613701,-2.230632 13.098162,-3.460626 8.585542,-1.628533 12.349266,-2.433847 12.642687,-2.705125 0.34304,-0.317153 -3.006652,-0.972134 -4.971673,-0.972134 -2.66504,0 -8.498166,0.968845 -13.592236,2.257584 -7.422978,1.877924 -11.2925993,3.952002 -11.2925993,6.05272 0,1.275053 0.2972523,1.366147 1.4044113,0.43039 0.547574,-0.4628 1.767635,-1.184067 2.711248,-1.602809 z m 34.156673,-6.322982 c -0.226566,-0.902712 -0.870227,-1.060396 -1.454547,-0.356333 -0.308707,0.371968 -0.210349,0.547943 0.520819,0.931822 1.078893,0.566441 1.201386,0.490944 0.933728,-0.575489 z m -4.103536,-1.633048 c 0.391162,-0.27398 0.711203,-0.62076 0.711203,-0.770623 0,-0.149862 -0.865206,-0.564662 -1.922681,-0.921777 l -1.922685,-0.6493 -1.308026,0.742973 -1.308028,0.742972 2.03071,0.643179 c 2.55001,0.807655 2.845782,0.824558 3.719507,0.212576 z m 1.351203,-2.961986 c 0,-0.143072 -0.426793,-0.669024 -0.948429,-1.168784 -0.803091,-0.76941 -1.025391,-0.844781 -1.450659,-0.491842 -0.701584,0.582265 -0.463494,1.011187 0.818407,1.474366 1.356252,0.490045 1.580681,0.516491 1.580681,0.18626 z m 36.389599,25.190825 c -1.810166,-0.426243 -2.86759,-1.065248 -4.196038,-2.535683 -2.193306,-2.427728 -3.221283,-5.88953 -3.181808,-10.715011 0.0543,-6.636912 2.751558,-10.95462 7.775312,-12.446514 0.951001,-0.282417 2.324822,-0.513486 3.052934,-0.513486 1.488051,0 4.439353,0.784258 5.499949,1.461516 l 0.699952,0.446963 -0.825344,2.485761 c -0.45394,1.367168 -0.870941,2.539786 -0.926676,2.605818 -0.05573,0.06603 -0.715756,-0.125787 -1.46672,-0.426264 -0.750966,-0.300477 -2.12223,-0.564042 -3.047251,-0.585699 -1.451744,-0.03399 -1.815638,0.08879 -2.659619,0.897374 -1.415718,1.356345 -2.03407,3.770728 -1.839536,7.182569 0.241786,4.240541 1.524381,6.261104 3.828391,6.031133 1.184592,-0.118237 2.053001,-1.186931 2.355839,-2.899171 l 0.21224,-1.2 -1.635612,0 -1.635613,0 0,-2.4 0,-2.4 4.363203,0 4.363203,0 -0.172864,3.92 c -0.211581,4.798022 -0.970915,7.283689 -2.801213,9.169683 -1.872793,1.929785 -4.726454,2.635971 -7.762729,1.921011 z M 113.26274,42.5535 c 3e-5,-0.135188 1.56463,-4.597117 3.47688,-9.915405 l 3.47683,-9.669609 -3.39689,-0.09039 -3.39688,-0.09039 -0.092,-2.96 -0.092,-2.96 7.37201,0 c 4.0546,0 7.37044,0.108 7.36854,0.24 -0.002,0.132 -1.4341,4.56 -3.18264,9.84 l -3.17916,9.6 3.5145,0.09059 3.5145,0.09059 -0.0919,2.949408 -0.0919,2.949408 -7.6,0.08579 c -4.18,0.04718 -7.59998,-0.02483 -7.59994,-0.16 z m 59.89115,-0.600205 c -2.14779,-1.070285 -3.69665,-3.089546 -4.61913,-6.021971 -1.01919,-3.239846 -1.01919,-9.287386 0,-12.527233 1.44126,-4.581558 4.28894,-6.862624 8.55074,-6.849355 6.18003,0.01924 9.45717,4.563214 9.45717,13.112972 0,8.549757 -3.27714,13.093731 -9.45717,13.112972 -1.80038,0.0056 -2.59602,-0.161833 -3.93161,-0.827385 z m 5.68843,-6.136006 c 2.10266,-2.10266 2.10266,-10.196502 0,-12.299163 -1.0993,-1.0993 -2.31201,-1.147144 -3.32786,-0.13129 -1.05915,1.059142 -1.44822,2.746533 -1.44822,6.280872 0,3.534339 0.38907,5.221731 1.44822,6.280873 1.01585,1.015853 2.22856,0.96801 3.32786,-0.131292 z m 51.84632,6.582428 c -0.008,-0.226605 1.10597,-6.064009 2.47486,-12.972009 l 2.48889,-12.56 3.74358,0 c 3.28833,0 3.76389,0.0681 3.91065,0.56 0.16361,0.548397 4.99605,24.941548 4.99605,25.21903 0,0.07753 -1.35499,0.14097 -3.01109,0.14097 l -3.01108,0 -0.38017,-2.253908 -0.38017,-2.25391 -2.12875,0.09391 -2.12874,0.09391 -0.32021,2.08 -0.32022,2.08 -2.95978,0.09201 c -2.24268,0.06971 -2.96319,-0.0078 -2.97382,-0.32 z m 9.83483,-10.572009 c -0.0927,-0.396 -0.35144,-2.048896 -0.57492,-3.673104 -0.22348,-1.624208 -0.4595,-2.899938 -0.52448,-2.834956 -0.13961,0.139606 -1.02733,5.855167 -1.03566,6.66806 -0.004,0.430931 0.26039,0.56 1.14895,0.56 1.03408,0 1.13708,-0.07521 0.98611,-0.72 z m -146.794819,10.4 c -0.008,-0.132 1.10597,-5.892 2.474862,-12.8 l 2.48889,-12.56 3.759037,0 c 3.63394,0 3.76477,0.02396 3.93114,0.72 0.18641,0.779856 4.9601,24.636208 4.9601,24.78791 0,0.05065 -1.35656,0.09209 -3.01458,0.09209 l -3.01457,0 -0.1683,-0.88 c -0.0926,-0.484 -0.26172,-1.498266 -0.3759,-2.253927 l -0.20761,-1.373926 -2.12952,0.09393 -2.12952,0.09393 -0.27742,2.16 -0.277427,2.16 -3.00257,0 c -1.65142,0 -3.008902,-0.108 -3.016612,-0.24 z m 9.718059,-9.92 c 0.078,-0.132 -0.10701,-1.824 -0.41113,-3.76 -0.59717,-3.801619 -0.5879,-3.807364 -1.29076,0.8 -0.47525,3.115344 -0.45888,3.2 0.61897,3.2 0.51761,0 1.00493,-0.108 1.08292,-0.24 z m 28.05597,-2.64 0,-12.8 4.88,0.007 c 5.65176,0.0081 6.73979,0.326273 8.61724,2.51966 2.28262,2.666722 2.75441,6.641951 1.21343,10.224054 -1.27412,2.961789 -3.86706,4.529258 -7.49238,4.529258 l -1.45829,0 0,4.16 0,4.16 -2.88,0 -2.88,0 0,-12.8 z m 8.77666,-1.782377 c 0.67709,-0.677095 0.93973,-1.85642 0.71787,-3.223548 -0.264,-1.626874 -0.73119,-2.034075 -2.33372,-2.034075 l -1.40081,0 0,2.88 0,2.88 1.25714,0 c 0.71568,0 1.47352,-0.216378 1.75952,-0.502377 z m 9.14333,1.782377 0,-12.8 4.68288,0 c 5.55782,0 6.84092,0.311607 8.62714,2.095147 3.13598,3.13126 3.14544,8.489373 0.0215,12.188805 l -0.84777,1.003949 2.39812,5.025516 c 1.31894,2.764032 2.39809,5.084256 2.39809,5.156048 0,0.0718 -1.49941,0.130535 -3.33202,0.130535 l -3.33202,0 -0.81895,-2.16 c -0.45043,-1.188 -1.16704,-3.096 -1.59247,-4.24 -0.57944,-1.558131 -0.943,-2.105655 -1.44902,-2.182256 -0.65919,-0.09979 -0.67552,0.0026 -0.67552,4.24 l 0,4.342256 -3.04,0 -3.04,0 0,-12.8 z m 8.96,-1.92 c 0.46139,-0.461385 0.64,-1.066666 0.64,-2.168798 0,-2.104381 -0.64795,-2.951202 -2.25814,-2.951202 l -1.26186,0 0,2.88 0,2.88 1.12,0 c 0.69334,0 1.36381,-0.24381 1.76,-0.64 z m 31.36,1.92 0,-12.8 2.52975,0 2.52974,0 2.10589,2.88 c 1.15824,1.584 2.21586,2.877432 2.35026,2.874293 0.1344,-0.0031 1.17961,-1.299139 2.32268,-2.88 l 2.07832,-2.874293 2.64168,0 2.64168,0 0,12.8 0,12.8 -3.03431,0 -3.03431,0 -0.0857,-7.70857 -0.0857,-7.708572 -1.73094,2.160428 -1.73094,2.160429 -0.98906,-1.245353 c -0.54398,-0.684944 -1.38084,-1.680279 -1.85968,-2.211857 l -0.87062,-0.966505 -0.009,7.76 -0.009,7.76 -2.88,0 -2.88,0 0,-12.8 z m 23.04,-0.02106 0,-12.821071 5.36,0.101072 c 4.50614,0.08497 5.55709,0.198901 6.59719,0.71518 3.55158,1.762912 4.43825,6.847374 1.7754,10.18077 l -0.95451,1.194878 1.41753,1.365123 c 3.66012,3.524787 2.37884,9.93471 -2.31703,11.59151 -1.04233,0.367738 -2.73501,0.493594 -6.63881,0.493594 l -5.23977,0 0,-12.821072 z m 9.28,6.421056 c 0.39218,-0.392176 0.64,-1.066666 0.64,-1.741856 0,-1.400208 -0.92847,-2.098144 -2.7912,-2.098144 l -1.3688,0 0,2.24 0,2.24 1.44,0 c 1.01334,0 1.62963,-0.189629 2.08,-0.64 z m -0.7112,-9.778145 c 0.47608,-0.333457 0.7112,-0.827643 0.7112,-1.494803 0,-1.406974 -0.80306,-2.167052 -2.28959,-2.167052 l -1.23041,0 0,2.08 0,2.08 1.0488,0 c 0.57684,0 1.36884,-0.224165 1.76,-0.498145 z m 29.1912,3.378145 0,-12.8 2.55825,0 2.55825,0 2.86477,5.68 2.86475,5.68 0.017,-5.68 0.017,-5.68 2.88,0 2.88,0 0,12.8 0,12.8 -2.48237,0 -2.48236,0 -2.71764,-5.747578 -2.71763,-5.747574 -0.0872,5.747574 -0.0872,5.747578 -3.03278,0 -3.03278,0 0,-12.8 z m 20.48,0 0,-12.8 2.88,0 2.88,0 0,4.64 c 0,4.369033 0.036,4.64 0.61701,4.64 0.6469,0 0.67872,-0.0686 2.93107,-6.32 l 1.06648,-2.96 3.13272,0 c 1.723,0 3.13272,0.05064 3.13272,0.112528 0,0.06189 -1.00837,2.799945 -2.24083,6.084566 l -2.24082,5.972039 2.43995,6.315433 c 1.34198,3.473488 2.51169,6.50048 2.59937,6.72665 0.1251,0.322723 -0.58355,0.391587 -3.29299,0.32 l -3.4524,-0.09122 -1.65131,-4.96 c -1.40546,-4.221549 -1.75476,-4.975226 -2.34614,-5.062256 -0.68852,-0.101328 -0.69483,-0.05558 -0.69483,5.04 l 0,5.142256 -2.88,0 -2.88,0 0,-12.8 z"
     style="fill:#00457c;fill-opacity:1" />
</svg>
