<?xml version="1.0" encoding="UTF-8" standalone="no"?> <!-- Created with Vectornator for iOS (http://vectornator.io/) --><!DOCTYPE svg PUBLIC "-//W3C//DTD SVG 1.1//EN" "http://www.w3.org/Graphics/SVG/1.1/DTD/svg11.dtd">
<svg height="100%" style="fill-rule:evenodd;clip-rule:evenodd;stroke-linecap:round;stroke-linejoin:round;" xmlns:xlink="http://www.w3.org/1999/xlink" xmlns="http://www.w3.org/2000/svg" xml:space="preserve" width="100%" xmlns:vectornator="http://vectornator.io" version="1.1" viewBox="0 0 1024 1024">
<metadata>
<vectornator:setting key="DimensionsVisible" value="1"/>
<vectornator:setting key="SnapToGrid" value="0"/>
<vectornator:setting key="SnapToPoints" value="0"/>
<vectornator:setting key="GuidesVisible" value="1"/>
<vectornator:setting key="RulersVisible" value="1"/>
<vectornator:setting key="SnapToEdges" value="0"/>
<vectornator:setting key="DisplayWhiteBackground" value="0"/>
<vectornator:setting key="SnapToGuides" value="1"/>
<vectornator:setting key="GridSpacing" value="36"/>
<vectornator:setting key="Units" value="Pixels"/>
<vectornator:setting key="DynamicGuides" value="0"/>
<vectornator:setting key="New" value="1"/>
</metadata>
<defs/>
<g id="Слой 1" vectornator:layerName="Слой 1">
<path stroke="#e24c46" stroke-width="0.1" d="M-3.8146-11.3146L1039.61-11.3146C1044-11.3146+1047.57-7.81483+1047.57-3.49766L1047.57+1030.4C1047.57+1034.72+1044+1038.22+1039.61+1038.22L-3.8146+1038.22C-8.20773+1038.22-11.7691+1034.72-11.7691+1030.4L-11.7691-3.49766C-11.7691-7.81483-8.20773-11.3146-3.8146-11.3146Z" fill="#ffffff" stroke-linecap="round" opacity="1" stroke-linejoin="round"/>
</g>
<g id="Слой 2 скопировать" vectornator:layerName="Слой 2 скопировать">
<path stroke="#000000" stroke-width="30" d="M806.911+276.199L736.342+602.231" fill="none" stroke-linecap="round" opacity="1" stroke-linejoin="round"/>
<path stroke="#000000" stroke-width="14" d="M773.991+291.361L781.565+143.847" fill="none" stroke-linecap="round" opacity="1" stroke-linejoin="round"/>
<path stroke="#000000" stroke-width="30" d="M659.423+677.462L735.889+603.045" fill="none" stroke-linecap="round" opacity="1" stroke-linejoin="round"/>
<path stroke="#000000" stroke-width="30" d="M519.778+793.242L660.739+677.039" fill="none" stroke-linecap="round" opacity="1" stroke-linejoin="round"/>
<path stroke="#000000" stroke-width="30" d="M212.402+274.495L572.895+525.167" fill="none" stroke-linecap="round" opacity="1" stroke-linejoin="round"/>
<path stroke="#000000" stroke-width="30" d="M574.464+526.616L660.705+676.768" fill="none" stroke-linecap="round" opacity="1" stroke-linejoin="round"/>
<path stroke="#000000" stroke-width="30" d="M288.86+606.138L507.045+790.593" fill="none" stroke-linecap="round" opacity="1" stroke-linejoin="round"/>
<path stroke="#000000" stroke-width="30" d="M212.075+275.109L287.535+603.112" fill="none" stroke-linecap="round" opacity="1" stroke-linejoin="round"/>
<path stroke="#000000" stroke-width="30" d="M458.717+444.343L806.162+276.648" fill="none" stroke-linecap="round" opacity="1" stroke-linejoin="round"/>
<path stroke="#000000" stroke-width="20" d="M590.232+153.326L774.862+272.918" fill="none" stroke-linecap="round" opacity="1" stroke-linejoin="round"/>
<path stroke="#000000" stroke-width="20" d="M739.17+166.433L680.409+116.118" fill="none" stroke-linecap="round" opacity="1" stroke-linejoin="round"/>
<path stroke="#000000" stroke-width="20" d="M609.1+163.023L680.22+115.909" fill="none" stroke-linecap="round" opacity="1" stroke-linejoin="round"/>
<path stroke="#000000" stroke-width="20" d="M572.251+287.874L778.888+147.039" fill="none" stroke-linecap="round" opacity="1" stroke-linejoin="round"/>
<path stroke="#000000" stroke-width="20" d="M659.265+346.633L665.576+229.099" fill="none" stroke-linecap="round" opacity="1" stroke-linejoin="round"/>
<path stroke="#000000" stroke-width="20" d="M473.052+158.535L592.145+96.9015" fill="none" stroke-linecap="round" opacity="1" stroke-linejoin="round"/>
<path stroke="#000000" stroke-width="20" d="M377.265+94.5993L540.616+210.408" fill="none" stroke-linecap="round" opacity="1" stroke-linejoin="round"/>
<path stroke="#000000" stroke-width="20" d="M406.028+106.869L478.393+69.5763" fill="none" stroke-linecap="round" opacity="1" stroke-linejoin="round"/>
<path stroke="#000000" stroke-width="20" d="M541.008+118.899L478.667+69.6725" fill="none" stroke-linecap="round" opacity="1" stroke-linejoin="round"/>
<path stroke="#000000" stroke-width="20" d="M499.603+238.186L582.919+190.337" fill="none" stroke-linecap="round" opacity="1" stroke-linejoin="round"/>
<path stroke="#000000" stroke-width="20" d="M632.183+241.915L572.466+197.194" fill="none" stroke-linecap="round" opacity="1" stroke-linejoin="round"/>
<path stroke="#000000" stroke-width="20" d="M582.684+202.661L592.851+95.8658" fill="none" stroke-linecap="round" opacity="1" stroke-linejoin="round"/>
<path stroke="#000000" stroke-width="20" d="M502.084+420.607L513.695+286.507" fill="none" stroke-linecap="round" opacity="1" stroke-linejoin="round"/>
<path stroke="#000000" stroke-width="20" d="M499.212+406.763L309.54+284.413" fill="none" stroke-linecap="round" opacity="1" stroke-linejoin="round"/>
<path stroke="#000000" stroke-width="20" d="M242.22+289.558L231.533+175.492" fill="none" stroke-linecap="round" opacity="1" stroke-linejoin="round"/>
<path stroke="#000000" stroke-width="20" d="M377.854+273.16L231.242+174.637" fill="none" stroke-linecap="round" opacity="1" stroke-linejoin="round"/>
<path stroke="#000000" stroke-width="20" d="M319.642+345.254L309.821+285.969" fill="none" stroke-linecap="round" opacity="1" stroke-linejoin="round"/>
<path stroke="#000000" stroke-width="20" d="M412.103+260.171L337.9+301.681" fill="none" stroke-linecap="round" opacity="1" stroke-linejoin="round"/>
<path stroke="#000000" stroke-width="20" d="M475.453+305.073L412.309+260.433" fill="none" stroke-linecap="round" opacity="1" stroke-linejoin="round"/>
<path stroke="#000000" stroke-width="20" d="M415.456+349.731L513.568+286.706" fill="none" stroke-linecap="round" opacity="1" stroke-linejoin="round"/>
<path stroke="#000000" stroke-width="20" d="M653.883+344.291L472.953+223.651" fill="none" stroke-linecap="round" opacity="1" stroke-linejoin="round"/>
<path stroke="#000000" stroke-width="20" d="M475.886+300.363L472.858+223.598" fill="none" stroke-linecap="round" opacity="1" stroke-linejoin="round"/>
<path stroke="#000000" stroke-width="20" d="M260.186+192.432L336.255+147.557" fill="none" stroke-linecap="round" opacity="1" stroke-linejoin="round"/>
<path stroke="#000000" stroke-width="20" d="M400.512+194.038L336.719+147.158" fill="none" stroke-linecap="round" opacity="1" stroke-linejoin="round"/>
<path stroke="#000000" stroke-width="20" d="M325.001+233.972L433.275+175.848" fill="none" stroke-linecap="round" opacity="1" stroke-linejoin="round"/>
<path stroke="#000000" stroke-width="20" d="M422.995+266.154L431.974+182.247" fill="none" stroke-linecap="round" opacity="1" stroke-linejoin="round"/>
<path stroke="#000000" stroke-width="20" d="M377.008+95.335L378.961+170.563" fill="none" stroke-linecap="round" opacity="1" stroke-linejoin="round"/>
<path stroke="#000000" stroke-width="12" d="M531.051+258.896L570.361+238.359" fill="none" stroke-linecap="round" opacity="1" stroke-linejoin="round"/>
<path stroke="#000000" stroke-width="12" d="M603.716+260.002L570.507+238.041" fill="none" stroke-linecap="round" opacity="1" stroke-linejoin="round"/>
<path stroke="#000000" stroke-width="12" d="M643.59+185.139L681.592+164.803" fill="none" stroke-linecap="round" opacity="1" stroke-linejoin="round"/>
<path stroke="#000000" stroke-width="12" d="M682.518+164.183L713.14+188.404" fill="none" stroke-linecap="round" opacity="1" stroke-linejoin="round"/>
<path stroke="#000000" stroke-width="12" d="M291.581+210.672L330.44+187.865" fill="none" stroke-linecap="round" opacity="1" stroke-linejoin="round"/>
<path stroke="#000000" stroke-width="12" d="M365.088+213.178L331.104+187.984" fill="none" stroke-linecap="round" opacity="1" stroke-linejoin="round"/>
<path stroke="#000000" stroke-width="12" d="M446.564+136.883L474.748+120.048" fill="none" stroke-linecap="round" opacity="1" stroke-linejoin="round"/>
<path stroke="#000000" stroke-width="12" d="M503.951+139.124L475.611+120.456" fill="none" stroke-linecap="round" opacity="1" stroke-linejoin="round"/>
<path stroke="#000000" stroke-width="12" d="M379.412+323.995L414.791+301.731" fill="none" stroke-linecap="round" opacity="1" stroke-linejoin="round"/>
<path stroke="#000000" stroke-width="12" d="M450.509+323.782L415.25+301.658" fill="none" stroke-linecap="round" opacity="1" stroke-linejoin="round"/>
<path stroke="#000000" stroke-width="30" d="M510.307+800.467L602.161+864.982" fill="none" stroke-linecap="round" opacity="1" stroke-linejoin="round"/>
<path stroke="#000000" stroke-width="30" d="M515.611+915.514L599.879+954.904" fill="none" stroke-linecap="round" opacity="1" stroke-linejoin="round"/>
<path stroke="#000000" stroke-width="30" d="M432.952+956.643L512.837+916.994" fill="none" stroke-linecap="round" opacity="1" stroke-linejoin="round"/>
<path stroke="#000000" stroke-width="30" d="M430.959+867.804L432.952+951.906" fill="none" stroke-linecap="round" opacity="1" stroke-linejoin="round"/>
<path stroke="#000000" stroke-width="30" d="M430.727+865.794L511.114+803.277" fill="none" stroke-linecap="round" opacity="1" stroke-linejoin="round"/>
<path stroke="#000000" stroke-width="14" d="M535.062+794.529L584.547+775.378L602.448+769.451L618.936+764.906L630.068+768.978L637.951+774.899L642.286+779.888L646.994+788.845L647.642+794.942L646.426+800.229L646.085+805.528L641.941+812.837L633.35+821.206L615.338+825.229L577.906+813.518L533.092+795.117" fill="none" stroke-linecap="round" opacity="1" stroke-linejoin="round"/>
<path stroke="#000000" stroke-width="14" d="M505.195+793.597L454.404+772.778L437.664+766.208L423.037+762.816L411.704+765.109L404.204+771.108L400.055+776.214L395.494+785.447L394.794+791.789L395.857+797.328L396.099+802.858L399.885+810.568L407.837+819.481L424.711+824.07L460.077+812.682L507.608+795.486" fill="none" stroke-linecap="round" opacity="1" stroke-linejoin="round"/>
<path stroke="#000000" stroke-width="14" d="M514.211+803.792L502.819+874.521" fill="none" stroke-linecap="round" opacity="1" stroke-linejoin="round"/>
<path stroke="#000000" stroke-width="14" d="M518.808+803.229L537.149+873.767" fill="none" stroke-linecap="round" opacity="1" stroke-linejoin="round"/>
<path stroke="#000000" stroke-width="30" d="M602.716+866.852L599.115+952.404" fill="none" stroke-linecap="round" opacity="1" stroke-linejoin="round"/>
</g>
</svg>
